# xmcd
#
# Track frame offsets: 
#        150
#        23930
#        40915
#        64170
#        96567
#        113347
#        133652
#        152812
#        172005
#        192042
#        216770
#        236860
#        261555
#        279875
#        299980
#
# Disc length: 4365 seconds
#
# Revision: 4
# Processed by: cddbd v1.5.2PL0 Copyright (c) Steve Scherf et al.
# Submitted via: ExactAudioCopyFreeDBPlugin 1.0
#
DISCID=ea110b0f
DTITLE=Tina Turner - The Collected Recordings:  Sixties to Nineties [b
DTITLE=ox set]
DYEAR=1994
DGENRE=Soul
TTITLE0=Let's Stay Together
TTITLE1=What's Love Got to Do with It
TTITLE2=Better Be Good to Me
TTITLE3=Private Dancer
TTITLE4=I Can't Stand the Rain
TTITLE5=Help
TTITLE6=We Don't Need Another Hero (Thunderdome)
TTITLE7=Typical Male
TTITLE8=What You Get is What You See
TTITLE9=Paradise is Here
TTITLE10=Back Where You Started
TTITLE11=The Best
TTITLE12=Steamy Windows
TTITLE13=Foreign Affair
TTITLE14=I Don't Wanna Fight
EXTD=YEAR: 1994
EXTT0=
EXTT1=
EXTT2=
EXTT3=
EXTT4=
EXTT5=
EXTT6=
EXTT7=
EXTT8=
EXTT9=
EXTT10=
EXTT11=
EXTT12=
EXTT13=
EXTT14=
PLAYORDER=
